solid OpenSCAD_Model
  facet normal -1 0 0
    outer loop
      vertex 0 -2.25 0
      vertex 0 2.25 1.5
      vertex 0 2.25 0
    endloop
  endfacet
  facet normal -1 -0 0
    outer loop
      vertex 0 2.25 1.5
      vertex 0 -2.25 0
      vertex 0 -2.25 1.5
    endloop
  endfacet
  facet normal -0 0 1
    outer loop
      vertex 0 2.25 1.5
      vertex 3 1.25 1.5
      vertex 3 2.25 1.5
    endloop
  endfacet
  facet normal 0 0 1
    outer loop
      vertex 3 1.25 1.5
      vertex 0 2.25 1.5
      vertex 3 -1.25 1.5
    endloop
  endfacet
  facet normal 0 0 1
    outer loop
      vertex 0 -2.25 1.5
      vertex 3 -1.25 1.5
      vertex 0 2.25 1.5
    endloop
  endfacet
  facet normal 0 0 1
    outer loop
      vertex 3 -1.25 1.5
      vertex 0 -2.25 1.5
      vertex 3 -2.25 1.5
    endloop
  endfacet
  facet normal -0 0 1
    outer loop
      vertex 3 1.25 1.5
      vertex 9 -1.25 1.5
      vertex 9 1.25 1.5
    endloop
  endfacet
  facet normal 0 0 1
    outer loop
      vertex 9 -1.25 1.5
      vertex 3 1.25 1.5
      vertex 3 -1.25 1.5
    endloop
  endfacet
  facet normal 1 -0 0
    outer loop
      vertex 9 -1.25 1.5
      vertex 9 1.25 0
      vertex 9 1.25 1.5
    endloop
  endfacet
  facet normal 1 0 0
    outer loop
      vertex 9 1.25 0
      vertex 9 -1.25 1.5
      vertex 9 -1.25 0
    endloop
  endfacet
  facet normal 0 1 -0
    outer loop
      vertex 9 1.25 0
      vertex 3 1.25 1.5
      vertex 9 1.25 1.5
    endloop
  endfacet
  facet normal 0 1 0
    outer loop
      vertex 3 1.25 1.5
      vertex 9 1.25 0
      vertex 3 1.25 0
    endloop
  endfacet
  facet normal 0 0 -1
    outer loop
      vertex 0 -2.25 0
      vertex 3 -1.25 0
      vertex 3 -2.25 0
    endloop
  endfacet
  facet normal -0 0 -1
    outer loop
      vertex 3 -1.25 0
      vertex 0 -2.25 0
      vertex 3 1.25 0
    endloop
  endfacet
  facet normal 0 0 -1
    outer loop
      vertex 0 2.25 0
      vertex 3 1.25 0
      vertex 0 -2.25 0
    endloop
  endfacet
  facet normal 0 0 -1
    outer loop
      vertex 3 1.25 0
      vertex 0 2.25 0
      vertex 3 2.25 0
    endloop
  endfacet
  facet normal 0 0 -1
    outer loop
      vertex 3 -1.25 0
      vertex 9 1.25 0
      vertex 9 -1.25 0
    endloop
  endfacet
  facet normal -0 0 -1
    outer loop
      vertex 9 1.25 0
      vertex 3 -1.25 0
      vertex 3 1.25 0
    endloop
  endfacet
  facet normal 0 -1 0
    outer loop
      vertex 3 -1.25 0
      vertex 9 -1.25 1.5
      vertex 3 -1.25 1.5
    endloop
  endfacet
  facet normal 0 -1 -0
    outer loop
      vertex 9 -1.25 1.5
      vertex 3 -1.25 0
      vertex 9 -1.25 0
    endloop
  endfacet
  facet normal 1 -0 0
    outer loop
      vertex 3 -2.25 1.5
      vertex 3 -1.25 0
      vertex 3 -1.25 1.5
    endloop
  endfacet
  facet normal 1 0 0
    outer loop
      vertex 3 -1.25 0
      vertex 3 -2.25 1.5
      vertex 3 -2.25 0
    endloop
  endfacet
  facet normal 1 -0 0
    outer loop
      vertex 3 1.25 1.5
      vertex 3 2.25 0
      vertex 3 2.25 1.5
    endloop
  endfacet
  facet normal 1 0 0
    outer loop
      vertex 3 2.25 0
      vertex 3 1.25 1.5
      vertex 3 1.25 0
    endloop
  endfacet
  facet normal 0 -1 0
    outer loop
      vertex 0 -2.25 0
      vertex 3 -2.25 1.5
      vertex 0 -2.25 1.5
    endloop
  endfacet
  facet normal 0 -1 -0
    outer loop
      vertex 3 -2.25 1.5
      vertex 0 -2.25 0
      vertex 3 -2.25 0
    endloop
  endfacet
  facet normal 0 1 -0
    outer loop
      vertex 3 2.25 0
      vertex 0 2.25 1.5
      vertex 3 2.25 1.5
    endloop
  endfacet
  facet normal 0 1 0
    outer loop
      vertex 0 2.25 1.5
      vertex 3 2.25 0
      vertex 0 2.25 0
    endloop
  endfacet
endsolid OpenSCAD_Model
