solid OpenSCAD_Model
  facet normal -0.463213 -0.580851 0.669362
    outer loop
      vertex 1.55496 0.0501442 0
      vertex 2 2 2
      vertex 0.198063 1.13223 0
    endloop
  endfacet
  facet normal -0.742936 0 0.669362
    outer loop
      vertex 0.198063 41 0
      vertex 2 2 2
      vertex 2 41 2
    endloop
  endfacet
  facet normal -0.742936 0 0.669362
    outer loop
      vertex 2 2 2
      vertex 0.198063 41 0
      vertex 0.198063 1.13223 0
    endloop
  endfacet
  facet normal 0 0 -1
    outer loop
      vertex 2 41 2
      vertex 54 43 2
      vertex 54 41 2
    endloop
  endfacet
  facet normal -0 0 -1
    outer loop
      vertex 54 43 2
      vertex 2 41 2
      vertex 2 43 2
    endloop
  endfacet
  facet normal 0.707107 -0 0.707107
    outer loop
      vertex 54 2 2
      vertex 56 41 0
      vertex 54 41 2
    endloop
  endfacet
  facet normal 0.707107 0 0.707107
    outer loop
      vertex 56 41 0
      vertex 54 2 2
      vertex 56 2 0
    endloop
  endfacet
  facet normal -1 0 0
    outer loop
      vertex 0.198063 1.13223 -9.91821e-05
      vertex 0.198063 41 0
      vertex 0.198063 41 -9.91821e-05
    endloop
  endfacet
  facet normal -1 -0 0
    outer loop
      vertex 0.198063 41 0
      vertex 0.198063 1.13223 -9.91821e-05
      vertex 0.198063 1.13223 0
    endloop
  endfacet
  facet normal 0 -1 0
    outer loop
      vertex 1.55496 0.0501442 -9.91821e-05
      vertex 53.555 0.0501442 0
      vertex 1.55496 0.0501442 0
    endloop
  endfacet
  facet normal 0 -1 -0
    outer loop
      vertex 53.555 0.0501442 0
      vertex 1.55496 0.0501442 -9.91821e-05
      vertex 53.555 0.0501442 -9.91821e-05
    endloop
  endfacet
  facet normal 0 -0.716026 0.698074
    outer loop
      vertex 53.555 0.0501442 0
      vertex 2 2 2
      vertex 1.55496 0.0501442 0
    endloop
  endfacet
  facet normal 0 -0.716026 0.698074
    outer loop
      vertex 2 2 2
      vertex 53.555 0.0501442 0
      vertex 54 2 2
    endloop
  endfacet
  facet normal -0.62349 -0.781831 0
    outer loop
      vertex 0.198063 1.13223 -9.91821e-05
      vertex 1.55496 0.0501442 0
      vertex 0.198063 1.13223 0
    endloop
  endfacet
  facet normal -0.62349 -0.781831 -0
    outer loop
      vertex 1.55496 0.0501442 0
      vertex 0.198063 1.13223 -9.91821e-05
      vertex 1.55496 0.0501442 -9.91821e-05
    endloop
  endfacet
  facet normal 0 0 -1
    outer loop
      vertex 39.15 4.65 -9.91821e-05
      vertex 35.5 5 -9.91821e-05
      vertex 37.5 6.5 -9.91821e-05
    endloop
  endfacet
  facet normal 0 0 -1
    outer loop
      vertex 30.5 5 -9.91821e-05
      vertex 37.5 6.5 -9.91821e-05
      vertex 35.5 5 -9.91821e-05
    endloop
  endfacet
  facet normal 0 0 -1
    outer loop
      vertex 28.5 5 -9.91821e-05
      vertex 30.5 5 -9.91821e-05
      vertex 28.5 3 -9.91821e-05
    endloop
  endfacet
  facet normal 0 0 -1
    outer loop
      vertex 28.5 5 -9.91821e-05
      vertex 37.5 6.5 -9.91821e-05
      vertex 30.5 5 -9.91821e-05
    endloop
  endfacet
  facet normal 0 0 -1
    outer loop
      vertex 21.5 6.5 -9.91821e-05
      vertex 28.5 5 -9.91821e-05
      vertex 23.5 5 -9.91821e-05
    endloop
  endfacet
  facet normal 0 0 -1
    outer loop
      vertex 28.5 5 -9.91821e-05
      vertex 21.5 6.5 -9.91821e-05
      vertex 37.5 6.5 -9.91821e-05
    endloop
  endfacet
  facet normal 0 0 -1
    outer loop
      vertex 21.5 6.5 -9.91821e-05
      vertex 19 20 -9.91821e-05
      vertex 21.5 24.5 -9.91821e-05
    endloop
  endfacet
  facet normal 0 0 -1
    outer loop
      vertex 19 20 -9.91821e-05
      vertex 5 24.5 -9.91821e-05
      vertex 21.5 24.5 -9.91821e-05
    endloop
  endfacet
  facet normal 0 0 -1
    outer loop
      vertex 4 20 -9.91821e-05
      vertex 5 24.5 -9.91821e-05
      vertex 19 20 -9.91821e-05
    endloop
  endfacet
  facet normal 0 0 -1
    outer loop
      vertex 0.198063 41 -9.91821e-05
      vertex 5 24.5 -9.91821e-05
      vertex 4 20 -9.91821e-05
    endloop
  endfacet
  facet normal -0 0 -1
    outer loop
      vertex 4 6 -9.91821e-05
      vertex 0.198063 1.13223 -9.91821e-05
      vertex 4 20 -9.91821e-05
    endloop
  endfacet
  facet normal 0 0 -1
    outer loop
      vertex 0.198063 41 -9.91821e-05
      vertex 4 20 -9.91821e-05
      vertex 0.198063 1.13223 -9.91821e-05
    endloop
  endfacet
  facet normal 0 0 -1
    outer loop
      vertex 5 24.5 -9.91821e-05
      vertex 0.198063 41 -9.91821e-05
      vertex 5 41 -9.91821e-05
    endloop
  endfacet
  facet normal 0 0 -1
    outer loop
      vertex 14 5 -9.91821e-05
      vertex 19 6 -9.91821e-05
      vertex 14 3 -9.91821e-05
    endloop
  endfacet
  facet normal 0 0 -1
    outer loop
      vertex 9 5 -9.91821e-05
      vertex 19 6 -9.91821e-05
      vertex 14 5 -9.91821e-05
    endloop
  endfacet
  facet normal -0 0 -1
    outer loop
      vertex 19 6 -9.91821e-05
      vertex 9 5 -9.91821e-05
      vertex 4 6 -9.91821e-05
    endloop
  endfacet
  facet normal 0 0 -1
    outer loop
      vertex 50.1023 21.65 -9.91821e-05
      vertex 51 24.5 -9.91821e-05
      vertex 51.25 20.5023 -9.91821e-05
    endloop
  endfacet
  facet normal 0 0 -1
    outer loop
      vertex 40.75 21.65 -9.91821e-05
      vertex 51 24.5 -9.91821e-05
      vertex 50.1023 21.65 -9.91821e-05
    endloop
  endfacet
  facet normal 0 0 -1
    outer loop
      vertex 37.5 24.5 -9.91821e-05
      vertex 39.15 13.35 -9.91821e-05
      vertex 37.5 6.5 -9.91821e-05
    endloop
  endfacet
  facet normal 0 0 -1
    outer loop
      vertex 40.75 21.65 -9.91821e-05
      vertex 37.5 24.5 -9.91821e-05
      vertex 51 24.5 -9.91821e-05
    endloop
  endfacet
  facet normal 0 0 -1
    outer loop
      vertex 39.15 13.35 -9.91821e-05
      vertex 37.5 24.5 -9.91821e-05
      vertex 40.75 21.65 -9.91821e-05
    endloop
  endfacet
  facet normal 0 0 -1
    outer loop
      vertex 52.85 13.35 -9.91821e-05
      vertex 50.1023 16.35 -9.91821e-05
      vertex 51.25 17.4977 -9.91821e-05
    endloop
  endfacet
  facet normal 0 0 -1
    outer loop
      vertex 39.15 13.35 -9.91821e-05
      vertex 50.1023 16.35 -9.91821e-05
      vertex 52.85 13.35 -9.91821e-05
    endloop
  endfacet
  facet normal -0 0 -1
    outer loop
      vertex 40.75 16.35 -9.91821e-05
      vertex 39.15 13.35 -9.91821e-05
      vertex 40.75 21.65 -9.91821e-05
    endloop
  endfacet
  facet normal -0 0 -1
    outer loop
      vertex 50.1023 16.35 -9.91821e-05
      vertex 39.15 13.35 -9.91821e-05
      vertex 40.75 16.35 -9.91821e-05
    endloop
  endfacet
  facet normal 0 0 -1
    outer loop
      vertex 53.555 0.0501442 -9.91821e-05
      vertex 39.15 4.65 -9.91821e-05
      vertex 52.85 4.65 -9.91821e-05
    endloop
  endfacet
  facet normal 0 0 -1
    outer loop
      vertex 39.15 4.65 -9.91821e-05
      vertex 37.5 6.5 -9.91821e-05
      vertex 39.15 13.35 -9.91821e-05
    endloop
  endfacet
  facet normal 0 0 -1
    outer loop
      vertex 35.5 5 -9.91821e-05
      vertex 39.15 4.65 -9.91821e-05
      vertex 35.5 3 -9.91821e-05
    endloop
  endfacet
  facet normal 0 0 -1
    outer loop
      vertex 53.555 0.0501442 -9.91821e-05
      vertex 35.5 3 -9.91821e-05
      vertex 39.15 4.65 -9.91821e-05
    endloop
  endfacet
  facet normal 0 0 -1
    outer loop
      vertex 53.555 0.0501442 -9.91821e-05
      vertex 30.5 3 -9.91821e-05
      vertex 35.5 3 -9.91821e-05
    endloop
  endfacet
  facet normal 0 0 -1
    outer loop
      vertex 30.5 3 -9.91821e-05
      vertex 28.5 3 -9.91821e-05
      vertex 30.5 5 -9.91821e-05
    endloop
  endfacet
  facet normal 0 0 -1
    outer loop
      vertex 53.555 0.0501442 -9.91821e-05
      vertex 28.5 3 -9.91821e-05
      vertex 30.5 3 -9.91821e-05
    endloop
  endfacet
  facet normal 0 0 -1
    outer loop
      vertex 1.55496 0.0501442 -9.91821e-05
      vertex 28.5 3 -9.91821e-05
      vertex 53.555 0.0501442 -9.91821e-05
    endloop
  endfacet
  facet normal 0 0 -1
    outer loop
      vertex 23.5 3 -9.91821e-05
      vertex 21.5 6.5 -9.91821e-05
      vertex 23.5 5 -9.91821e-05
    endloop
  endfacet
  facet normal 0 0 -1
    outer loop
      vertex 19 20 -9.91821e-05
      vertex 21.5 6.5 -9.91821e-05
      vertex 19 6 -9.91821e-05
    endloop
  endfacet
  facet normal 0 0 -1
    outer loop
      vertex 23.5 3 -9.91821e-05
      vertex 19 6 -9.91821e-05
      vertex 21.5 6.5 -9.91821e-05
    endloop
  endfacet
  facet normal 0 0 -1
    outer loop
      vertex 23.5 3 -9.91821e-05
      vertex 14 3 -9.91821e-05
      vertex 19 6 -9.91821e-05
    endloop
  endfacet
  facet normal -0 0 -1
    outer loop
      vertex 28.5 3 -9.91821e-05
      vertex 1.55496 0.0501442 -9.91821e-05
      vertex 23.5 3 -9.91821e-05
    endloop
  endfacet
  facet normal -0 0 -1
    outer loop
      vertex 23.5 3 -9.91821e-05
      vertex 1.55496 0.0501442 -9.91821e-05
      vertex 14 3 -9.91821e-05
    endloop
  endfacet
  facet normal 0 0 -1
    outer loop
      vertex 9 3 -9.91821e-05
      vertex 4 6 -9.91821e-05
      vertex 9 5 -9.91821e-05
    endloop
  endfacet
  facet normal 0 0 -1
    outer loop
      vertex 0.198063 1.13223 -9.91821e-05
      vertex 4 6 -9.91821e-05
      vertex 1.55496 0.0501442 -9.91821e-05
    endloop
  endfacet
  facet normal -0 0 -1
    outer loop
      vertex 9 3 -9.91821e-05
      vertex 1.55496 0.0501442 -9.91821e-05
      vertex 4 6 -9.91821e-05
    endloop
  endfacet
  facet normal -0 0 -1
    outer loop
      vertex 14 3 -9.91821e-05
      vertex 1.55496 0.0501442 -9.91821e-05
      vertex 9 3 -9.91821e-05
    endloop
  endfacet
  facet normal 0 0 -1
    outer loop
      vertex 53.555 0.0501442 -9.91821e-05
      vertex 56 2 -9.91821e-05
      vertex 55.247 0.436337 -9.91821e-05
    endloop
  endfacet
  facet normal -0 0 -1
    outer loop
      vertex 56 2 -9.91821e-05
      vertex 53.555 0.0501442 -9.91821e-05
      vertex 52.85 4.65 -9.91821e-05
    endloop
  endfacet
  facet normal 0 0 -1
    outer loop
      vertex 56 2 -9.91821e-05
      vertex 52.85 4.65 -9.91821e-05
      vertex 52.85 13.35 -9.91821e-05
    endloop
  endfacet
  facet normal 0 0 -1
    outer loop
      vertex 56 2 -9.91821e-05
      vertex 52.85 13.35 -9.91821e-05
      vertex 56 41 -9.91821e-05
    endloop
  endfacet
  facet normal 0 0 -1
    outer loop
      vertex 51.25 20.5023 -9.91821e-05
      vertex 52.85 13.35 -9.91821e-05
      vertex 51.25 17.4977 -9.91821e-05
    endloop
  endfacet
  facet normal 0 0 -1
    outer loop
      vertex 52.85 13.35 -9.91821e-05
      vertex 51.25 20.5023 -9.91821e-05
      vertex 56 41 -9.91821e-05
    endloop
  endfacet
  facet normal 0 0 -1
    outer loop
      vertex 51 24.5 -9.91821e-05
      vertex 56 41 -9.91821e-05
      vertex 51.25 20.5023 -9.91821e-05
    endloop
  endfacet
  facet normal -0 0 -1
    outer loop
      vertex 56 41 -9.91821e-05
      vertex 51 24.5 -9.91821e-05
      vertex 51 41 -9.91821e-05
    endloop
  endfacet
  facet normal 0.165319 -0.724309 0.669362
    outer loop
      vertex 55.247 0.436337 0
      vertex 54 2 2
      vertex 53.555 0.0501442 0
    endloop
  endfacet
  facet normal 0.669362 -0.322348 0.669362
    outer loop
      vertex 55.247 0.436337 0
      vertex 56 2 0
      vertex 54 2 2
    endloop
  endfacet
  facet normal 0.900969 -0.433884 0
    outer loop
      vertex 55.247 0.436337 0
      vertex 56 2 -9.91821e-05
      vertex 56 2 0
    endloop
  endfacet
  facet normal 0.900969 -0.433884 0
    outer loop
      vertex 56 2 -9.91821e-05
      vertex 55.247 0.436337 0
      vertex 55.247 0.436337 -9.91821e-05
    endloop
  endfacet
  facet normal 1 -0 0
    outer loop
      vertex 56 2 0
      vertex 56 41 -9.91821e-05
      vertex 56 41 0
    endloop
  endfacet
  facet normal 1 0 0
    outer loop
      vertex 56 41 -9.91821e-05
      vertex 56 2 0
      vertex 56 2 -9.91821e-05
    endloop
  endfacet
  facet normal 0.222521 -0.974928 0
    outer loop
      vertex 53.555 0.0501442 -9.91821e-05
      vertex 55.247 0.436337 0
      vertex 53.555 0.0501442 0
    endloop
  endfacet
  facet normal 0.222521 -0.974928 0
    outer loop
      vertex 55.247 0.436337 0
      vertex 53.555 0.0501442 -9.91821e-05
      vertex 55.247 0.436337 -9.91821e-05
    endloop
  endfacet
  facet normal 0 1 -0
    outer loop
      vertex 51 41 -9.91821e-05
      vertex 5 41 0
      vertex 51 41 0
    endloop
  endfacet
  facet normal 0 1 0
    outer loop
      vertex 51 41 -9.91821e-05
      vertex 5 41 -9.91821e-05
      vertex 5 41 0
    endloop
  endfacet
  facet normal 0 1 -0
    outer loop
      vertex 51 41 -6
      vertex 5 41 -9.91821e-05
      vertex 51 41 -9.91821e-05
    endloop
  endfacet
  facet normal 0 1 0
    outer loop
      vertex 5 41 -9.91821e-05
      vertex 51 41 -6
      vertex 5 41 -6
    endloop
  endfacet
  facet normal 0 1 0
    outer loop
      vertex 51 41 -9.91821e-05
      vertex 54 41 2
      vertex 56 41 -9.91821e-05
    endloop
  endfacet
  facet normal 0 1 0
    outer loop
      vertex 54 41 2
      vertex 51 41 -9.91821e-05
      vertex 51 41 0
    endloop
  endfacet
  facet normal 0 1 -0
    outer loop
      vertex 56 41 -9.91821e-05
      vertex 54 41 2
      vertex 56 41 0
    endloop
  endfacet
  facet normal 0 1 0
    outer loop
      vertex 54 41 2
      vertex 51 41 0
      vertex 2 41 2
    endloop
  endfacet
  facet normal 0 1 -0
    outer loop
      vertex 5 41 0
      vertex 2 41 2
      vertex 51 41 0
    endloop
  endfacet
  facet normal 0 1 -0
    outer loop
      vertex 5 41 -9.91821e-05
      vertex 2 41 2
      vertex 5 41 0
    endloop
  endfacet
  facet normal 0 1 0
    outer loop
      vertex 0.198063 41 -9.91821e-05
      vertex 2 41 2
      vertex 5 41 -9.91821e-05
    endloop
  endfacet
  facet normal 0 1 0
    outer loop
      vertex 2 41 2
      vertex 0.198063 41 -9.91821e-05
      vertex 0.198063 41 0
    endloop
  endfacet
  facet normal -1 0 0
    outer loop
      vertex 0 0 4
      vertex 0 43 6
      vertex 0 43 4
    endloop
  endfacet
  facet normal -1 -0 0
    outer loop
      vertex 0 43 6
      vertex 0 0 4
      vertex 0 0 6
    endloop
  endfacet
  facet normal 0 0 -1
    outer loop
      vertex 56 0 4
      vertex 54 2 4
      vertex 56 43 4
    endloop
  endfacet
  facet normal 0 0 -1
    outer loop
      vertex 56 0 4
      vertex 2 2 4
      vertex 54 2 4
    endloop
  endfacet
  facet normal 0 0 -1
    outer loop
      vertex 0 0 4
      vertex 2 2 4
      vertex 56 0 4
    endloop
  endfacet
  facet normal 0 0 -1
    outer loop
      vertex 0 43 4
      vertex 2 2 4
      vertex 0 0 4
    endloop
  endfacet
  facet normal 0 0 -1
    outer loop
      vertex 2 2 4
      vertex 0 43 4
      vertex 2 43 4
    endloop
  endfacet
  facet normal -0 0 -1
    outer loop
      vertex 56 43 4
      vertex 54 2 4
      vertex 54 43 4
    endloop
  endfacet
  facet normal 1 -0 0
    outer loop
      vertex 56 0 6
      vertex 56 43 4
      vertex 56 43 6
    endloop
  endfacet
  facet normal 1 0 0
    outer loop
      vertex 56 43 4
      vertex 56 0 6
      vertex 56 0 4
    endloop
  endfacet
  facet normal 0 1 -0
    outer loop
      vertex 54 43 2
      vertex 2 43 4
      vertex 54 43 4
    endloop
  endfacet
  facet normal 0 1 0
    outer loop
      vertex 2 43 4
      vertex 54 43 2
      vertex 2 43 2
    endloop
  endfacet
  facet normal 0 1 0
    outer loop
      vertex 54 43 4
      vertex 56 43 6
      vertex 56 43 4
    endloop
  endfacet
  facet normal 0 1 0
    outer loop
      vertex 56 43 6
      vertex 54 43 4
      vertex 0 43 6
    endloop
  endfacet
  facet normal 0 1 -0
    outer loop
      vertex 2 43 4
      vertex 0 43 6
      vertex 54 43 4
    endloop
  endfacet
  facet normal 0 1 0
    outer loop
      vertex 0 43 6
      vertex 2 43 4
      vertex 0 43 4
    endloop
  endfacet
  facet normal 0 0 1
    outer loop
      vertex 19 6 6
      vertex 10 5 6
      vertex 13 5 6
    endloop
  endfacet
  facet normal 0 0 1
    outer loop
      vertex 10 5 6
      vertex 4 6 6
      vertex 10 3 6
    endloop
  endfacet
  facet normal -0 0 1
    outer loop
      vertex 4 6 6
      vertex 10 5 6
      vertex 19 6 6
    endloop
  endfacet
  facet normal -0 0 1
    outer loop
      vertex 6.75 26.1999 6
      vertex 19 20 6
      vertex 19.25 26.1999 6
    endloop
  endfacet
  facet normal 0 0 1
    outer loop
      vertex 19 20 6
      vertex 6.75 26.1999 6
      vertex 4 20 6
    endloop
  endfacet
  facet normal 0 0 1
    outer loop
      vertex 19.25 33.6999 6
      vertex 16.65 32.4499 6
      vertex 19.25 30.7999 6
    endloop
  endfacet
  facet normal 0 0 1
    outer loop
      vertex 19.25 33.6999 6
      vertex 9.35 32.4499 6
      vertex 16.65 32.4499 6
    endloop
  endfacet
  facet normal -0 0 1
    outer loop
      vertex 6.75 33.6999 6
      vertex 9.35 32.4499 6
      vertex 19.25 33.6999 6
    endloop
  endfacet
  facet normal 0 0 1
    outer loop
      vertex 6.75 30.7999 6
      vertex 9.35 32.4499 6
      vertex 6.75 33.6999 6
    endloop
  endfacet
  facet normal 0 0 1
    outer loop
      vertex 9.35 32.4499 6
      vertex 6.75 30.7999 6
      vertex 9.35 30.7999 6
    endloop
  endfacet
  facet normal 0 0 1
    outer loop
      vertex 19.25 38.2999 6
      vertex 16.65 39.9499 6
      vertex 16.65 38.2999 6
    endloop
  endfacet
  facet normal 0 0 1
    outer loop
      vertex 19.25 30.7999 6
      vertex 16.65 32.4499 6
      vertex 16.65 30.7999 6
    endloop
  endfacet
  facet normal 0 0 1
    outer loop
      vertex 34.25 33.6999 6
      vertex 31.65 32.4499 6
      vertex 34.25 30.7999 6
    endloop
  endfacet
  facet normal 0 0 1
    outer loop
      vertex 34.25 33.6999 6
      vertex 24.35 32.4499 6
      vertex 31.65 32.4499 6
    endloop
  endfacet
  facet normal -0 0 1
    outer loop
      vertex 21.75 33.6999 6
      vertex 24.35 32.4499 6
      vertex 34.25 33.6999 6
    endloop
  endfacet
  facet normal 0 0 1
    outer loop
      vertex 21.75 30.7999 6
      vertex 24.35 32.4499 6
      vertex 21.75 33.6999 6
    endloop
  endfacet
  facet normal 0 0 1
    outer loop
      vertex 24.35 32.4499 6
      vertex 21.75 30.7999 6
      vertex 24.35 30.7999 6
    endloop
  endfacet
  facet normal 0 0 1
    outer loop
      vertex 37.5 6.5 6
      vertex 31.5 5 6
      vertex 34.5 5 6
    endloop
  endfacet
  facet normal 0 0 1
    outer loop
      vertex 31.5 5 6
      vertex 27.5 5 6
      vertex 31.5 3 6
    endloop
  endfacet
  facet normal 0 0 1
    outer loop
      vertex 37.5 6.5 6
      vertex 27.5 5 6
      vertex 31.5 5 6
    endloop
  endfacet
  facet normal -0 0 1
    outer loop
      vertex 21.5 6.5 6
      vertex 27.5 5 6
      vertex 37.5 6.5 6
    endloop
  endfacet
  facet normal 0 0 1
    outer loop
      vertex 24.5 5 6
      vertex 21.5 6.5 6
      vertex 24.5 3 6
    endloop
  endfacet
  facet normal 0 0 1
    outer loop
      vertex 27.5 5 6
      vertex 21.5 6.5 6
      vertex 24.5 5 6
    endloop
  endfacet
  facet normal 0 0 1
    outer loop
      vertex 49.25 33.7 6
      vertex 46.65 32.4499 6
      vertex 49.25 30.7999 6
    endloop
  endfacet
  facet normal 0 0 1
    outer loop
      vertex 49.25 33.7 6
      vertex 39.35 32.4499 6
      vertex 46.65 32.4499 6
    endloop
  endfacet
  facet normal -0 0 1
    outer loop
      vertex 36.75 33.7 6
      vertex 39.35 32.4499 6
      vertex 49.25 33.7 6
    endloop
  endfacet
  facet normal 0 0 1
    outer loop
      vertex 36.75 30.7999 6
      vertex 39.35 32.4499 6
      vertex 36.75 33.7 6
    endloop
  endfacet
  facet normal 0 0 1
    outer loop
      vertex 39.35 32.4499 6
      vertex 36.75 30.7999 6
      vertex 39.35 30.7999 6
    endloop
  endfacet
  facet normal 0 0 1
    outer loop
      vertex 56 43 6
      vertex 52.85 13.35 6
      vertex 56 0 6
    endloop
  endfacet
  facet normal 0 0 1
    outer loop
      vertex 56 43 6
      vertex 51.25 20.5023 6
      vertex 52.85 13.35 6
    endloop
  endfacet
  facet normal -0 0 1
    outer loop
      vertex 49.25 30.7999 6
      vertex 51.25 20.5023 6
      vertex 56 43 6
    endloop
  endfacet
  facet normal 0 0 1
    outer loop
      vertex 49.25 33.7 6
      vertex 56 43 6
      vertex 49.25 38.3 6
    endloop
  endfacet
  facet normal 0 0 1
    outer loop
      vertex 56 43 6
      vertex 46.65 39.95 6
      vertex 49.25 38.3 6
    endloop
  endfacet
  facet normal 0 0 1
    outer loop
      vertex 56 43 6
      vertex 39.35 39.95 6
      vertex 46.65 39.95 6
    endloop
  endfacet
  facet normal 0 0 1
    outer loop
      vertex 39.35 39.95 6
      vertex 36.75 38.3 6
      vertex 39.35 38.3 6
    endloop
  endfacet
  facet normal 0 0 1
    outer loop
      vertex 34.25 33.6999 6
      vertex 36.75 33.7 6
      vertex 36.75 38.3 6
    endloop
  endfacet
  facet normal 0 0 1
    outer loop
      vertex 36.75 33.7 6
      vertex 34.25 33.6999 6
      vertex 36.75 30.7999 6
    endloop
  endfacet
  facet normal 0 0 1
    outer loop
      vertex 34.25 33.6999 6
      vertex 36.75 38.3 6
      vertex 34.25 38.2999 6
    endloop
  endfacet
  facet normal 0 0 1
    outer loop
      vertex 39.35 39.95 6
      vertex 34.25 38.2999 6
      vertex 36.75 38.3 6
    endloop
  endfacet
  facet normal 0 0 1
    outer loop
      vertex 39.35 39.95 6
      vertex 31.65 39.9499 6
      vertex 34.25 38.2999 6
    endloop
  endfacet
  facet normal 0 0 1
    outer loop
      vertex 56 43 6
      vertex 31.65 39.9499 6
      vertex 39.35 39.95 6
    endloop
  endfacet
  facet normal 0 0 1
    outer loop
      vertex 56 43 6
      vertex 24.35 39.9499 6
      vertex 31.65 39.9499 6
    endloop
  endfacet
  facet normal 0 0 1
    outer loop
      vertex 24.35 39.9499 6
      vertex 21.75 38.2999 6
      vertex 24.35 38.2999 6
    endloop
  endfacet
  facet normal 0 0 1
    outer loop
      vertex 19.25 33.6999 6
      vertex 21.75 33.6999 6
      vertex 21.75 38.2999 6
    endloop
  endfacet
  facet normal 0 0 1
    outer loop
      vertex 21.75 33.6999 6
      vertex 19.25 33.6999 6
      vertex 21.75 30.7999 6
    endloop
  endfacet
  facet normal 0 0 1
    outer loop
      vertex 21.75 30.7999 6
      vertex 19.25 30.7999 6
      vertex 21.75 26.1999 6
    endloop
  endfacet
  facet normal 0 0 1
    outer loop
      vertex 21.75 30.7999 6
      vertex 19.25 33.6999 6
      vertex 19.25 30.7999 6
    endloop
  endfacet
  facet normal 0 0 1
    outer loop
      vertex 19.25 33.6999 6
      vertex 21.75 38.2999 6
      vertex 19.25 38.2999 6
    endloop
  endfacet
  facet normal 0 0 1
    outer loop
      vertex 24.35 39.9499 6
      vertex 19.25 38.2999 6
      vertex 21.75 38.2999 6
    endloop
  endfacet
  facet normal 0 0 1
    outer loop
      vertex 24.35 39.9499 6
      vertex 16.65 39.9499 6
      vertex 19.25 38.2999 6
    endloop
  endfacet
  facet normal -0 0 1
    outer loop
      vertex 0 43 6
      vertex 24.35 39.9499 6
      vertex 56 43 6
    endloop
  endfacet
  facet normal 0 0 1
    outer loop
      vertex 24.35 39.9499 6
      vertex 0 43 6
      vertex 16.65 39.9499 6
    endloop
  endfacet
  facet normal 0 0 1
    outer loop
      vertex 9.35 39.9499 6
      vertex 6.75 38.2999 6
      vertex 9.35 38.2999 6
    endloop
  endfacet
  facet normal 0 0 1
    outer loop
      vertex 0 43 6
      vertex 6.75 33.6999 6
      vertex 6.75 38.2999 6
    endloop
  endfacet
  facet normal 0 0 1
    outer loop
      vertex 6.75 33.6999 6
      vertex 0 43 6
      vertex 6.75 30.7999 6
    endloop
  endfacet
  facet normal 0 -0 1
    outer loop
      vertex 4 20 6
      vertex 6.75 30.7999 6
      vertex 0 43 6
    endloop
  endfacet
  facet normal 0 0 1
    outer loop
      vertex 0 0 6
      vertex 4 20 6
      vertex 0 43 6
    endloop
  endfacet
  facet normal 0 0 1
    outer loop
      vertex 6.75 30.7999 6
      vertex 4 20 6
      vertex 6.75 26.1999 6
    endloop
  endfacet
  facet normal 0 0 1
    outer loop
      vertex 9.35 39.9499 6
      vertex 0 43 6
      vertex 6.75 38.2999 6
    endloop
  endfacet
  facet normal 0 0 1
    outer loop
      vertex 16.65 39.9499 6
      vertex 0 43 6
      vertex 9.35 39.9499 6
    endloop
  endfacet
  facet normal -0 0 1
    outer loop
      vertex 52.85 4.65 6
      vertex 56 0 6
      vertex 52.85 13.35 6
    endloop
  endfacet
  facet normal -0 0 1
    outer loop
      vertex 39.15 4.65 6
      vertex 56 0 6
      vertex 52.85 4.65 6
    endloop
  endfacet
  facet normal 0 0 1
    outer loop
      vertex 39.15 13.35 6
      vertex 37.5 6.5 6
      vertex 39.15 4.65 6
    endloop
  endfacet
  facet normal -0 0 1
    outer loop
      vertex 34.5 5 6
      vertex 39.15 4.65 6
      vertex 37.5 6.5 6
    endloop
  endfacet
  facet normal 0 0 1
    outer loop
      vertex 34.5 3 6
      vertex 39.15 4.65 6
      vertex 34.5 5 6
    endloop
  endfacet
  facet normal 0 0 1
    outer loop
      vertex 39.15 4.65 6
      vertex 34.5 3 6
      vertex 56 0 6
    endloop
  endfacet
  facet normal -0 0 1
    outer loop
      vertex 31.5 3 6
      vertex 56 0 6
      vertex 34.5 3 6
    endloop
  endfacet
  facet normal 0 0 1
    outer loop
      vertex 27.5 3 6
      vertex 31.5 3 6
      vertex 27.5 5 6
    endloop
  endfacet
  facet normal -0 0 1
    outer loop
      vertex 27.5 3 6
      vertex 56 0 6
      vertex 31.5 3 6
    endloop
  endfacet
  facet normal 0 0 1
    outer loop
      vertex 0 0 6
      vertex 27.5 3 6
      vertex 24.5 3 6
    endloop
  endfacet
  facet normal 0 0 1
    outer loop
      vertex 19.25 26.1999 6
      vertex 21.75 26.1999 6
      vertex 19.25 30.7999 6
    endloop
  endfacet
  facet normal 0 0 1
    outer loop
      vertex 21.75 26.1999 6
      vertex 19.25 26.1999 6
      vertex 21.5 24.5 6
    endloop
  endfacet
  facet normal 0 0 1
    outer loop
      vertex 19 20 6
      vertex 21.5 24.5 6
      vertex 19.25 26.1999 6
    endloop
  endfacet
  facet normal 0 0 1
    outer loop
      vertex 21.5 24.5 6
      vertex 19 20 6
      vertex 21.5 6.5 6
    endloop
  endfacet
  facet normal 0 0 1
    outer loop
      vertex 19 6 6
      vertex 21.5 6.5 6
      vertex 19 20 6
    endloop
  endfacet
  facet normal -0 0 1
    outer loop
      vertex 19 6 6
      vertex 24.5 3 6
      vertex 21.5 6.5 6
    endloop
  endfacet
  facet normal 0 0 1
    outer loop
      vertex 13 3 6
      vertex 19 6 6
      vertex 13 5 6
    endloop
  endfacet
  facet normal 0 0 1
    outer loop
      vertex 19 6 6
      vertex 13 3 6
      vertex 24.5 3 6
    endloop
  endfacet
  facet normal 0 0 1
    outer loop
      vertex 0 0 6
      vertex 24.5 3 6
      vertex 13 3 6
    endloop
  endfacet
  facet normal 0 0 1
    outer loop
      vertex 0 0 6
      vertex 13 3 6
      vertex 10 3 6
    endloop
  endfacet
  facet normal 0 0 1
    outer loop
      vertex 27.5 3 6
      vertex 0 0 6
      vertex 56 0 6
    endloop
  endfacet
  facet normal 0 0 1
    outer loop
      vertex 4 6 6
      vertex 0 0 6
      vertex 10 3 6
    endloop
  endfacet
  facet normal 0 0 1
    outer loop
      vertex 4 20 6
      vertex 0 0 6
      vertex 4 6 6
    endloop
  endfacet
  facet normal -0 0 1
    outer loop
      vertex 51.25 17.4977 6
      vertex 52.85 13.35 6
      vertex 51.25 20.5023 6
    endloop
  endfacet
  facet normal -0 0 1
    outer loop
      vertex 50.1023 16.35 6
      vertex 52.85 13.35 6
      vertex 51.25 17.4977 6
    endloop
  endfacet
  facet normal 0 0 1
    outer loop
      vertex 39.15 13.35 6
      vertex 50.1023 16.35 6
      vertex 40.75 16.35 6
    endloop
  endfacet
  facet normal 0 0 1
    outer loop
      vertex 50.1023 16.35 6
      vertex 39.15 13.35 6
      vertex 52.85 13.35 6
    endloop
  endfacet
  facet normal 0 0 1
    outer loop
      vertex 49.25 30.7999 6
      vertex 56 43 6
      vertex 49.25 33.7 6
    endloop
  endfacet
  facet normal 0 0 1
    outer loop
      vertex 51.25 20.5023 6
      vertex 49.25 30.7999 6
      vertex 49.25 26.1999 6
    endloop
  endfacet
  facet normal 0 0 1
    outer loop
      vertex 51.25 20.5023 6
      vertex 49.25 26.1999 6
      vertex 50.1023 21.65 6
    endloop
  endfacet
  facet normal 0 0 1
    outer loop
      vertex 49.25 26.1999 6
      vertex 40.75 21.65 6
      vertex 50.1023 21.65 6
    endloop
  endfacet
  facet normal 0 0 1
    outer loop
      vertex 37.5 24.5 6
      vertex 40.75 16.35 6
      vertex 40.75 21.65 6
    endloop
  endfacet
  facet normal 0 0 1
    outer loop
      vertex 37.5 6.5 6
      vertex 39.15 13.35 6
      vertex 37.5 24.5 6
    endloop
  endfacet
  facet normal 0 0 1
    outer loop
      vertex 40.75 16.35 6
      vertex 37.5 24.5 6
      vertex 39.15 13.35 6
    endloop
  endfacet
  facet normal 0 0 1
    outer loop
      vertex 49.25 26.1999 6
      vertex 37.5 24.5 6
      vertex 40.75 21.65 6
    endloop
  endfacet
  facet normal -0 0 1
    outer loop
      vertex 36.75 26.1999 6
      vertex 37.5 24.5 6
      vertex 49.25 26.1999 6
    endloop
  endfacet
  facet normal 0 0 1
    outer loop
      vertex 34.25 30.7999 6
      vertex 36.75 30.7999 6
      vertex 34.25 33.6999 6
    endloop
  endfacet
  facet normal 0 0 1
    outer loop
      vertex 36.75 30.7999 6
      vertex 34.25 30.7999 6
      vertex 36.75 26.1999 6
    endloop
  endfacet
  facet normal 0 0 1
    outer loop
      vertex 34.25 26.1999 6
      vertex 36.75 26.1999 6
      vertex 34.25 30.7999 6
    endloop
  endfacet
  facet normal 0 0 1
    outer loop
      vertex 36.75 26.1999 6
      vertex 34.25 26.1999 6
      vertex 37.5 24.5 6
    endloop
  endfacet
  facet normal 0 0 1
    outer loop
      vertex 21.5 24.5 6
      vertex 34.25 26.1999 6
      vertex 21.75 26.1999 6
    endloop
  endfacet
  facet normal 0 0 1
    outer loop
      vertex 34.25 26.1999 6
      vertex 21.5 24.5 6
      vertex 37.5 24.5 6
    endloop
  endfacet
  facet normal 0 0 1
    outer loop
      vertex 49.25 38.3 6
      vertex 46.65 39.95 6
      vertex 46.65 38.3 6
    endloop
  endfacet
  facet normal 0 0 1
    outer loop
      vertex 49.25 30.7999 6
      vertex 46.65 32.4499 6
      vertex 46.65 30.7999 6
    endloop
  endfacet
  facet normal 0 0 1
    outer loop
      vertex 34.25 38.2999 6
      vertex 31.65 39.9499 6
      vertex 31.65 38.2999 6
    endloop
  endfacet
  facet normal 0 0 1
    outer loop
      vertex 34.25 30.7999 6
      vertex 31.65 32.4499 6
      vertex 31.65 30.7999 6
    endloop
  endfacet
  facet normal 0 -1 0
    outer loop
      vertex 0 0 4
      vertex 56 0 6
      vertex 0 0 6
    endloop
  endfacet
  facet normal 0 -1 -0
    outer loop
      vertex 56 0 6
      vertex 0 0 4
      vertex 56 0 4
    endloop
  endfacet
  facet normal -1 0 0
    outer loop
      vertex 2 41 2
      vertex 2 43 4
      vertex 2 43 2
    endloop
  endfacet
  facet normal -1 0 0
    outer loop
      vertex 2 2 4
      vertex 2 41 2
      vertex 2 2 2
    endloop
  endfacet
  facet normal -1 0 0
    outer loop
      vertex 2 41 2
      vertex 2 2 4
      vertex 2 43 4
    endloop
  endfacet
  facet normal 1 0 0
    outer loop
      vertex 54 43 4
      vertex 54 41 2
      vertex 54 43 2
    endloop
  endfacet
  facet normal 1 -0 0
    outer loop
      vertex 54 2 4
      vertex 54 41 2
      vertex 54 43 4
    endloop
  endfacet
  facet normal 1 0 0
    outer loop
      vertex 54 41 2
      vertex 54 2 4
      vertex 54 2 2
    endloop
  endfacet
  facet normal 0 -1 0
    outer loop
      vertex 2 2 2
      vertex 54 2 4
      vertex 2 2 4
    endloop
  endfacet
  facet normal 0 -1 -0
    outer loop
      vertex 54 2 4
      vertex 2 2 2
      vertex 54 2 2
    endloop
  endfacet
  facet normal -1 0 0
    outer loop
      vertex 5 24.5 -6
      vertex 5 41 -9.91821e-05
      vertex 5 41 -6
    endloop
  endfacet
  facet normal -1 -0 0
    outer loop
      vertex 5 41 -9.91821e-05
      vertex 5 24.5 -6
      vertex 5 24.5 -9.91821e-05
    endloop
  endfacet
  facet normal 1 -0 0
    outer loop
      vertex 51 24.5 -9.91821e-05
      vertex 51 41 -6
      vertex 51 41 -9.91821e-05
    endloop
  endfacet
  facet normal 1 0 0
    outer loop
      vertex 51 41 -6
      vertex 51 24.5 -9.91821e-05
      vertex 51 24.5 -6
    endloop
  endfacet
  facet normal 0 0 -1
    outer loop
      vertex 9.35 38.2999 -6
      vertex 6.75 38.2999 -6
      vertex 9.35 39.9499 -6
    endloop
  endfacet
  facet normal 0 0 -1
    outer loop
      vertex 9.35 30.7999 -6
      vertex 6.75 30.7999 -6
      vertex 9.35 32.4499 -6
    endloop
  endfacet
  facet normal 0 0 -1
    outer loop
      vertex 16.65 32.4499 -6
      vertex 19.25 30.7999 -6
      vertex 16.65 30.7999 -6
    endloop
  endfacet
  facet normal 0 0 -1
    outer loop
      vertex 19.25 30.7999 -6
      vertex 16.65 32.4499 -6
      vertex 19.25 33.6999 -6
    endloop
  endfacet
  facet normal 0 0 -1
    outer loop
      vertex 9.35 32.4499 -6
      vertex 19.25 33.6999 -6
      vertex 16.65 32.4499 -6
    endloop
  endfacet
  facet normal 0 0 -1
    outer loop
      vertex 9.35 32.4499 -6
      vertex 6.75 33.6999 -6
      vertex 19.25 33.6999 -6
    endloop
  endfacet
  facet normal 0 0 -1
    outer loop
      vertex 6.75 33.6999 -6
      vertex 9.35 32.4499 -6
      vertex 6.75 30.7999 -6
    endloop
  endfacet
  facet normal 0 0 -1
    outer loop
      vertex 5 24.5 -6
      vertex 19.25 26.1999 -6
      vertex 21.5 24.5 -6
    endloop
  endfacet
  facet normal 0 0 -1
    outer loop
      vertex 5 24.5 -6
      vertex 6.75 30.7999 -6
      vertex 6.75 26.1999 -6
    endloop
  endfacet
  facet normal -0 0 -1
    outer loop
      vertex 6.75 30.7999 -6
      vertex 5 24.5 -6
      vertex 6.75 33.6999 -6
    endloop
  endfacet
  facet normal 0 0 -1
    outer loop
      vertex 5 41 -6
      vertex 6.75 33.6999 -6
      vertex 5 24.5 -6
    endloop
  endfacet
  facet normal -0 0 -1
    outer loop
      vertex 19.25 26.1999 -6
      vertex 5 24.5 -6
      vertex 6.75 26.1999 -6
    endloop
  endfacet
  facet normal 0 0 -1
    outer loop
      vertex 24.35 38.2999 -6
      vertex 21.75 38.2999 -6
      vertex 24.35 39.9499 -6
    endloop
  endfacet
  facet normal 0 0 -1
    outer loop
      vertex 24.35 30.7999 -6
      vertex 21.75 30.7999 -6
      vertex 24.35 32.4499 -6
    endloop
  endfacet
  facet normal 0 0 -1
    outer loop
      vertex 31.65 32.4499 -6
      vertex 34.25 30.7999 -6
      vertex 31.65 30.7999 -6
    endloop
  endfacet
  facet normal 0 0 -1
    outer loop
      vertex 34.25 30.7999 -6
      vertex 31.65 32.4499 -6
      vertex 34.25 33.6999 -6
    endloop
  endfacet
  facet normal 0 0 -1
    outer loop
      vertex 24.35 32.4499 -6
      vertex 34.25 33.6999 -6
      vertex 31.65 32.4499 -6
    endloop
  endfacet
  facet normal 0 0 -1
    outer loop
      vertex 24.35 32.4499 -6
      vertex 21.75 33.6999 -6
      vertex 34.25 33.6999 -6
    endloop
  endfacet
  facet normal 0 0 -1
    outer loop
      vertex 21.75 33.6999 -6
      vertex 24.35 32.4499 -6
      vertex 21.75 30.7999 -6
    endloop
  endfacet
  facet normal 0 0 -1
    outer loop
      vertex 39.35 30.7999 -6
      vertex 36.75 30.7999 -6
      vertex 39.35 32.4499 -6
    endloop
  endfacet
  facet normal 0 0 -1
    outer loop
      vertex 46.65 32.4499 -6
      vertex 49.25 30.7999 -6
      vertex 46.65 30.7999 -6
    endloop
  endfacet
  facet normal 0 0 -1
    outer loop
      vertex 49.25 30.7999 -6
      vertex 46.65 32.4499 -6
      vertex 49.25 33.7 -6
    endloop
  endfacet
  facet normal 0 0 -1
    outer loop
      vertex 39.35 32.4499 -6
      vertex 49.25 33.7 -6
      vertex 46.65 32.4499 -6
    endloop
  endfacet
  facet normal 0 0 -1
    outer loop
      vertex 39.35 32.4499 -6
      vertex 36.75 33.7 -6
      vertex 49.25 33.7 -6
    endloop
  endfacet
  facet normal 0 0 -1
    outer loop
      vertex 36.75 33.7 -6
      vertex 39.35 32.4499 -6
      vertex 36.75 30.7999 -6
    endloop
  endfacet
  facet normal 0 0 -1
    outer loop
      vertex 49.25 30.7999 -6
      vertex 51 24.5 -6
      vertex 49.25 26.1999 -6
    endloop
  endfacet
  facet normal 0 0 -1
    outer loop
      vertex 37.5 24.5 -6
      vertex 49.25 26.1999 -6
      vertex 51 24.5 -6
    endloop
  endfacet
  facet normal 0 0 -1
    outer loop
      vertex 37.5 24.5 -6
      vertex 36.75 26.1999 -6
      vertex 49.25 26.1999 -6
    endloop
  endfacet
  facet normal 0 0 -1
    outer loop
      vertex 34.25 30.7999 -6
      vertex 36.75 30.7999 -6
      vertex 36.75 26.1999 -6
    endloop
  endfacet
  facet normal 0 0 -1
    outer loop
      vertex 36.75 30.7999 -6
      vertex 34.25 30.7999 -6
      vertex 36.75 33.7 -6
    endloop
  endfacet
  facet normal 0 0 -1
    outer loop
      vertex 34.25 30.7999 -6
      vertex 36.75 26.1999 -6
      vertex 34.25 26.1999 -6
    endloop
  endfacet
  facet normal 0 0 -1
    outer loop
      vertex 37.5 24.5 -6
      vertex 34.25 26.1999 -6
      vertex 36.75 26.1999 -6
    endloop
  endfacet
  facet normal 0 0 -1
    outer loop
      vertex 21.5 24.5 -6
      vertex 34.25 26.1999 -6
      vertex 37.5 24.5 -6
    endloop
  endfacet
  facet normal 0 0 -1
    outer loop
      vertex 19.25 30.7999 -6
      vertex 21.75 30.7999 -6
      vertex 21.75 26.1999 -6
    endloop
  endfacet
  facet normal 0 0 -1
    outer loop
      vertex 21.75 30.7999 -6
      vertex 19.25 30.7999 -6
      vertex 21.75 33.6999 -6
    endloop
  endfacet
  facet normal 0 0 -1
    outer loop
      vertex 19.25 26.1999 -6
      vertex 21.75 26.1999 -6
      vertex 21.5 24.5 -6
    endloop
  endfacet
  facet normal -0 0 -1
    outer loop
      vertex 34.25 26.1999 -6
      vertex 21.5 24.5 -6
      vertex 21.75 26.1999 -6
    endloop
  endfacet
  facet normal 0 0 -1
    outer loop
      vertex 49.25 33.7 -6
      vertex 51 24.5 -6
      vertex 49.25 30.7999 -6
    endloop
  endfacet
  facet normal 0 0 -1
    outer loop
      vertex 51 24.5 -6
      vertex 49.25 33.7 -6
      vertex 51 41 -6
    endloop
  endfacet
  facet normal 0 0 -1
    outer loop
      vertex 49.25 38.3 -6
      vertex 51 41 -6
      vertex 49.25 33.7 -6
    endloop
  endfacet
  facet normal 0 0 -1
    outer loop
      vertex 46.65 39.95 -6
      vertex 49.25 38.3 -6
      vertex 46.65 38.3 -6
    endloop
  endfacet
  facet normal 0 0 -1
    outer loop
      vertex 49.25 38.3 -6
      vertex 46.65 39.95 -6
      vertex 51 41 -6
    endloop
  endfacet
  facet normal 0 0 -1
    outer loop
      vertex 39.35 39.95 -6
      vertex 51 41 -6
      vertex 46.65 39.95 -6
    endloop
  endfacet
  facet normal 0 0 -1
    outer loop
      vertex 34.25 33.6999 -6
      vertex 36.75 33.7 -6
      vertex 34.25 30.7999 -6
    endloop
  endfacet
  facet normal -0 0 -1
    outer loop
      vertex 36.75 33.7 -6
      vertex 34.25 33.6999 -6
      vertex 36.75 38.3 -6
    endloop
  endfacet
  facet normal 0 0 -1
    outer loop
      vertex 34.25 38.2999 -6
      vertex 36.75 38.3 -6
      vertex 34.25 33.6999 -6
    endloop
  endfacet
  facet normal 0 0 -1
    outer loop
      vertex 34.25 38.2999 -6
      vertex 39.35 39.95 -6
      vertex 36.75 38.3 -6
    endloop
  endfacet
  facet normal 0 0 -1
    outer loop
      vertex 31.65 39.9499 -6
      vertex 34.25 38.2999 -6
      vertex 31.65 38.2999 -6
    endloop
  endfacet
  facet normal 0 0 -1
    outer loop
      vertex 34.25 38.2999 -6
      vertex 31.65 39.9499 -6
      vertex 39.35 39.95 -6
    endloop
  endfacet
  facet normal 0 0 -1
    outer loop
      vertex 31.65 39.9499 -6
      vertex 51 41 -6
      vertex 39.35 39.95 -6
    endloop
  endfacet
  facet normal 0 0 -1
    outer loop
      vertex 24.35 39.9499 -6
      vertex 51 41 -6
      vertex 31.65 39.9499 -6
    endloop
  endfacet
  facet normal 0 0 -1
    outer loop
      vertex 21.75 26.1999 -6
      vertex 19.25 26.1999 -6
      vertex 19.25 30.7999 -6
    endloop
  endfacet
  facet normal 0 0 -1
    outer loop
      vertex 19.25 33.6999 -6
      vertex 21.75 33.6999 -6
      vertex 19.25 30.7999 -6
    endloop
  endfacet
  facet normal 0 0 -1
    outer loop
      vertex 21.75 33.6999 -6
      vertex 19.25 33.6999 -6
      vertex 21.75 38.2999 -6
    endloop
  endfacet
  facet normal 0 0 -1
    outer loop
      vertex 19.25 38.2999 -6
      vertex 21.75 38.2999 -6
      vertex 19.25 33.6999 -6
    endloop
  endfacet
  facet normal 0 0 -1
    outer loop
      vertex 19.25 38.2999 -6
      vertex 24.35 39.9499 -6
      vertex 21.75 38.2999 -6
    endloop
  endfacet
  facet normal 0 0 -1
    outer loop
      vertex 16.65 39.9499 -6
      vertex 19.25 38.2999 -6
      vertex 16.65 38.2999 -6
    endloop
  endfacet
  facet normal 0 0 -1
    outer loop
      vertex 19.25 38.2999 -6
      vertex 16.65 39.9499 -6
      vertex 24.35 39.9499 -6
    endloop
  endfacet
  facet normal 0 0 -1
    outer loop
      vertex 5 41 -6
      vertex 24.35 39.9499 -6
      vertex 16.65 39.9499 -6
    endloop
  endfacet
  facet normal 0 0 -1
    outer loop
      vertex 5 41 -6
      vertex 16.65 39.9499 -6
      vertex 9.35 39.9499 -6
    endloop
  endfacet
  facet normal 0 0 -1
    outer loop
      vertex 24.35 39.9499 -6
      vertex 5 41 -6
      vertex 51 41 -6
    endloop
  endfacet
  facet normal 0 0 -1
    outer loop
      vertex 6.75 38.2999 -6
      vertex 5 41 -6
      vertex 9.35 39.9499 -6
    endloop
  endfacet
  facet normal 0 0 -1
    outer loop
      vertex 6.75 33.6999 -6
      vertex 5 41 -6
      vertex 6.75 38.2999 -6
    endloop
  endfacet
  facet normal 0 0 -1
    outer loop
      vertex 39.35 38.3 -6
      vertex 36.75 38.3 -6
      vertex 39.35 39.95 -6
    endloop
  endfacet
  facet normal 0 -1 0
    outer loop
      vertex 5 24.5 -6
      vertex 21.5 24.5 -9.91821e-05
      vertex 5 24.5 -9.91821e-05
    endloop
  endfacet
  facet normal 0 -1 -0
    outer loop
      vertex 21.5 24.5 -9.91821e-05
      vertex 5 24.5 -6
      vertex 21.5 24.5 -6
    endloop
  endfacet
  facet normal 0 -1 0
    outer loop
      vertex 37.5 24.5 -6
      vertex 51 24.5 -9.91821e-05
      vertex 37.5 24.5 -9.91821e-05
    endloop
  endfacet
  facet normal 0 -1 -0
    outer loop
      vertex 51 24.5 -9.91821e-05
      vertex 37.5 24.5 -6
      vertex 51 24.5 -6
    endloop
  endfacet
  facet normal 0 -1 0
    outer loop
      vertex 21.5 24.5 -9.91821e-05
      vertex 37.5 24.5 6
      vertex 21.5 24.5 6
    endloop
  endfacet
  facet normal 0 -1 0
    outer loop
      vertex 21.5 24.5 -9.91821e-05
      vertex 37.5 24.5 -9.91821e-05
      vertex 37.5 24.5 6
    endloop
  endfacet
  facet normal 0 -1 0
    outer loop
      vertex 21.5 24.5 -6
      vertex 37.5 24.5 -9.91821e-05
      vertex 21.5 24.5 -9.91821e-05
    endloop
  endfacet
  facet normal 0 -1 -0
    outer loop
      vertex 37.5 24.5 -9.91821e-05
      vertex 21.5 24.5 -6
      vertex 37.5 24.5 -6
    endloop
  endfacet
  facet normal 1 -0 0
    outer loop
      vertex 40.75 16.35 6
      vertex 40.75 21.65 -9.91821e-05
      vertex 40.75 21.65 6
    endloop
  endfacet
  facet normal 1 0 0
    outer loop
      vertex 40.75 21.65 -9.91821e-05
      vertex 40.75 16.35 6
      vertex 40.75 16.35 -9.91821e-05
    endloop
  endfacet
  facet normal -1 0 0
    outer loop
      vertex 51.25 17.4977 -9.91821e-05
      vertex 51.25 20.5023 6
      vertex 51.25 20.5023 -9.91821e-05
    endloop
  endfacet
  facet normal -1 -0 0
    outer loop
      vertex 51.25 20.5023 6
      vertex 51.25 17.4977 -9.91821e-05
      vertex 51.25 17.4977 6
    endloop
  endfacet
  facet normal 0 1 -0
    outer loop
      vertex 50.1023 16.35 -9.91821e-05
      vertex 40.75 16.35 6
      vertex 50.1023 16.35 6
    endloop
  endfacet
  facet normal 0 1 0
    outer loop
      vertex 40.75 16.35 6
      vertex 50.1023 16.35 -9.91821e-05
      vertex 40.75 16.35 -9.91821e-05
    endloop
  endfacet
  facet normal 0 -1 0
    outer loop
      vertex 40.75 21.65 -9.91821e-05
      vertex 50.1023 21.65 6
      vertex 40.75 21.65 6
    endloop
  endfacet
  facet normal 0 -1 -0
    outer loop
      vertex 50.1023 21.65 6
      vertex 40.75 21.65 -9.91821e-05
      vertex 50.1023 21.65 -9.91821e-05
    endloop
  endfacet
  facet normal -0.707107 -0.707107 0
    outer loop
      vertex 51.25 20.5023 -9.91821e-05
      vertex 50.1023 21.65 6
      vertex 50.1023 21.65 -9.91821e-05
    endloop
  endfacet
  facet normal -0.707107 -0.707107 0
    outer loop
      vertex 50.1023 21.65 6
      vertex 51.25 20.5023 -9.91821e-05
      vertex 51.25 20.5023 6
    endloop
  endfacet
  facet normal -0.707107 0.707107 0
    outer loop
      vertex 50.1023 16.35 -9.91821e-05
      vertex 51.25 17.4977 6
      vertex 51.25 17.4977 -9.91821e-05
    endloop
  endfacet
  facet normal -0.707107 0.707107 0
    outer loop
      vertex 51.25 17.4977 6
      vertex 50.1023 16.35 -9.91821e-05
      vertex 50.1023 16.35 6
    endloop
  endfacet
  facet normal 1 -0 0
    outer loop
      vertex 10 3 6
      vertex 10 5 3.5
      vertex 10 5 6
    endloop
  endfacet
  facet normal 1 0 0
    outer loop
      vertex 10 5 3.5
      vertex 10 3 6
      vertex 10 3 3.5
    endloop
  endfacet
  facet normal -1 0 0
    outer loop
      vertex 13 3 3.5
      vertex 13 5 6
      vertex 13 5 3.5
    endloop
  endfacet
  facet normal -1 -0 0
    outer loop
      vertex 13 5 6
      vertex 13 3 3.5
      vertex 13 3 6
    endloop
  endfacet
  facet normal 0 -1 0
    outer loop
      vertex 9 5 -9.91821e-05
      vertex 10 5 3.5
      vertex 9 5 3.5
    endloop
  endfacet
  facet normal 0 -1 -0
    outer loop
      vertex 10 5 3.5
      vertex 9 5 -9.91821e-05
      vertex 13 5 3.5
    endloop
  endfacet
  facet normal 0 -1 0
    outer loop
      vertex 14 5 -9.91821e-05
      vertex 13 5 3.5
      vertex 9 5 -9.91821e-05
    endloop
  endfacet
  facet normal 0 -1 0
    outer loop
      vertex 13 5 3.5
      vertex 14 5 -9.91821e-05
      vertex 14 5 3.5
    endloop
  endfacet
  facet normal 0 -1 0
    outer loop
      vertex 10 5 3.5
      vertex 13 5 6
      vertex 10 5 6
    endloop
  endfacet
  facet normal 0 -1 -0
    outer loop
      vertex 13 5 6
      vertex 10 5 3.5
      vertex 13 5 3.5
    endloop
  endfacet
  facet normal 0 1 -0
    outer loop
      vertex 14 3 -9.91821e-05
      vertex 13 3 3.5
      vertex 14 3 3.5
    endloop
  endfacet
  facet normal 0 1 0
    outer loop
      vertex 13 3 3.5
      vertex 14 3 -9.91821e-05
      vertex 10 3 3.5
    endloop
  endfacet
  facet normal 0 1 0
    outer loop
      vertex 9 3 -9.91821e-05
      vertex 10 3 3.5
      vertex 14 3 -9.91821e-05
    endloop
  endfacet
  facet normal 0 1 0
    outer loop
      vertex 10 3 3.5
      vertex 9 3 -9.91821e-05
      vertex 9 3 3.5
    endloop
  endfacet
  facet normal 0 1 -0
    outer loop
      vertex 13 3 3.5
      vertex 10 3 6
      vertex 13 3 6
    endloop
  endfacet
  facet normal 0 1 0
    outer loop
      vertex 10 3 6
      vertex 13 3 3.5
      vertex 10 3 3.5
    endloop
  endfacet
  facet normal 1 -0 0
    outer loop
      vertex 9 3 3.5
      vertex 9 5 -9.91821e-05
      vertex 9 5 3.5
    endloop
  endfacet
  facet normal 1 0 0
    outer loop
      vertex 9 5 -9.91821e-05
      vertex 9 3 3.5
      vertex 9 3 -9.91821e-05
    endloop
  endfacet
  facet normal 0 0 -1
    outer loop
      vertex 13 3 3.5
      vertex 14 5 3.5
      vertex 14 3 3.5
    endloop
  endfacet
  facet normal -0 0 -1
    outer loop
      vertex 14 5 3.5
      vertex 13 3 3.5
      vertex 13 5 3.5
    endloop
  endfacet
  facet normal 0 0 -1
    outer loop
      vertex 9 3 3.5
      vertex 10 5 3.5
      vertex 10 3 3.5
    endloop
  endfacet
  facet normal -0 0 -1
    outer loop
      vertex 10 5 3.5
      vertex 9 3 3.5
      vertex 9 5 3.5
    endloop
  endfacet
  facet normal -1 0 0
    outer loop
      vertex 14 3 -9.91821e-05
      vertex 14 5 3.5
      vertex 14 5 -9.91821e-05
    endloop
  endfacet
  facet normal -1 -0 0
    outer loop
      vertex 14 5 3.5
      vertex 14 3 -9.91821e-05
      vertex 14 3 3.5
    endloop
  endfacet
  facet normal 1 -0 0
    outer loop
      vertex 24.5 3 6
      vertex 24.5 5 3.5
      vertex 24.5 5 6
    endloop
  endfacet
  facet normal 1 0 0
    outer loop
      vertex 24.5 5 3.5
      vertex 24.5 3 6
      vertex 24.5 3 3.5
    endloop
  endfacet
  facet normal -1 0 0
    outer loop
      vertex 27.5 3 3.5
      vertex 27.5 5 6
      vertex 27.5 5 3.5
    endloop
  endfacet
  facet normal -1 -0 0
    outer loop
      vertex 27.5 5 6
      vertex 27.5 3 3.5
      vertex 27.5 3 6
    endloop
  endfacet
  facet normal 0 1 -0
    outer loop
      vertex 28.5 3 -9.91821e-05
      vertex 27.5 3 3.5
      vertex 28.5 3 3.5
    endloop
  endfacet
  facet normal 0 1 0
    outer loop
      vertex 27.5 3 3.5
      vertex 28.5 3 -9.91821e-05
      vertex 24.5 3 3.5
    endloop
  endfacet
  facet normal 0 1 0
    outer loop
      vertex 23.5 3 -9.91821e-05
      vertex 24.5 3 3.5
      vertex 28.5 3 -9.91821e-05
    endloop
  endfacet
  facet normal 0 1 0
    outer loop
      vertex 24.5 3 3.5
      vertex 23.5 3 -9.91821e-05
      vertex 23.5 3 3.5
    endloop
  endfacet
  facet normal 0 1 -0
    outer loop
      vertex 27.5 3 3.5
      vertex 24.5 3 6
      vertex 27.5 3 6
    endloop
  endfacet
  facet normal 0 1 0
    outer loop
      vertex 24.5 3 6
      vertex 27.5 3 3.5
      vertex 24.5 3 3.5
    endloop
  endfacet
  facet normal 0 -1 0
    outer loop
      vertex 23.5 5 -9.91821e-05
      vertex 24.5 5 3.5
      vertex 23.5 5 3.5
    endloop
  endfacet
  facet normal 0 -1 -0
    outer loop
      vertex 24.5 5 3.5
      vertex 23.5 5 -9.91821e-05
      vertex 27.5 5 3.5
    endloop
  endfacet
  facet normal 0 -1 0
    outer loop
      vertex 28.5 5 -9.91821e-05
      vertex 27.5 5 3.5
      vertex 23.5 5 -9.91821e-05
    endloop
  endfacet
  facet normal 0 -1 0
    outer loop
      vertex 27.5 5 3.5
      vertex 28.5 5 -9.91821e-05
      vertex 28.5 5 3.5
    endloop
  endfacet
  facet normal 0 -1 0
    outer loop
      vertex 24.5 5 3.5
      vertex 27.5 5 6
      vertex 24.5 5 6
    endloop
  endfacet
  facet normal 0 -1 -0
    outer loop
      vertex 27.5 5 6
      vertex 24.5 5 3.5
      vertex 27.5 5 3.5
    endloop
  endfacet
  facet normal 1 -0 0
    outer loop
      vertex 23.5 3 3.5
      vertex 23.5 5 -9.91821e-05
      vertex 23.5 5 3.5
    endloop
  endfacet
  facet normal 1 0 0
    outer loop
      vertex 23.5 5 -9.91821e-05
      vertex 23.5 3 3.5
      vertex 23.5 3 -9.91821e-05
    endloop
  endfacet
  facet normal 0 0 -1
    outer loop
      vertex 27.5 3 3.5
      vertex 28.5 5 3.5
      vertex 28.5 3 3.5
    endloop
  endfacet
  facet normal -0 0 -1
    outer loop
      vertex 28.5 5 3.5
      vertex 27.5 3 3.5
      vertex 27.5 5 3.5
    endloop
  endfacet
  facet normal 0 0 -1
    outer loop
      vertex 23.5 3 3.5
      vertex 24.5 5 3.5
      vertex 24.5 3 3.5
    endloop
  endfacet
  facet normal -0 0 -1
    outer loop
      vertex 24.5 5 3.5
      vertex 23.5 3 3.5
      vertex 23.5 5 3.5
    endloop
  endfacet
  facet normal -1 0 0
    outer loop
      vertex 28.5 3 -9.91821e-05
      vertex 28.5 5 3.5
      vertex 28.5 5 -9.91821e-05
    endloop
  endfacet
  facet normal -1 -0 0
    outer loop
      vertex 28.5 5 3.5
      vertex 28.5 3 -9.91821e-05
      vertex 28.5 3 3.5
    endloop
  endfacet
  facet normal 1 -0 0
    outer loop
      vertex 31.5 3 6
      vertex 31.5 5 3.5
      vertex 31.5 5 6
    endloop
  endfacet
  facet normal 1 0 0
    outer loop
      vertex 31.5 5 3.5
      vertex 31.5 3 6
      vertex 31.5 3 3.5
    endloop
  endfacet
  facet normal -1 0 0
    outer loop
      vertex 34.5 3 3.5
      vertex 34.5 5 6
      vertex 34.5 5 3.5
    endloop
  endfacet
  facet normal -1 -0 0
    outer loop
      vertex 34.5 5 6
      vertex 34.5 3 3.5
      vertex 34.5 3 6
    endloop
  endfacet
  facet normal 0 1 -0
    outer loop
      vertex 35.5 3 -9.91821e-05
      vertex 34.5 3 3.5
      vertex 35.5 3 3.5
    endloop
  endfacet
  facet normal 0 1 0
    outer loop
      vertex 34.5 3 3.5
      vertex 35.5 3 -9.91821e-05
      vertex 31.5 3 3.5
    endloop
  endfacet
  facet normal 0 1 0
    outer loop
      vertex 30.5 3 -9.91821e-05
      vertex 31.5 3 3.5
      vertex 35.5 3 -9.91821e-05
    endloop
  endfacet
  facet normal 0 1 0
    outer loop
      vertex 31.5 3 3.5
      vertex 30.5 3 -9.91821e-05
      vertex 30.5 3 3.5
    endloop
  endfacet
  facet normal 0 1 -0
    outer loop
      vertex 34.5 3 3.5
      vertex 31.5 3 6
      vertex 34.5 3 6
    endloop
  endfacet
  facet normal 0 1 0
    outer loop
      vertex 31.5 3 6
      vertex 34.5 3 3.5
      vertex 31.5 3 3.5
    endloop
  endfacet
  facet normal 0 -1 0
    outer loop
      vertex 30.5 5 -9.91821e-05
      vertex 31.5 5 3.5
      vertex 30.5 5 3.5
    endloop
  endfacet
  facet normal 0 -1 -0
    outer loop
      vertex 31.5 5 3.5
      vertex 30.5 5 -9.91821e-05
      vertex 34.5 5 3.5
    endloop
  endfacet
  facet normal 0 -1 0
    outer loop
      vertex 35.5 5 -9.91821e-05
      vertex 34.5 5 3.5
      vertex 30.5 5 -9.91821e-05
    endloop
  endfacet
  facet normal 0 -1 0
    outer loop
      vertex 34.5 5 3.5
      vertex 35.5 5 -9.91821e-05
      vertex 35.5 5 3.5
    endloop
  endfacet
  facet normal 0 -1 0
    outer loop
      vertex 31.5 5 3.5
      vertex 34.5 5 6
      vertex 31.5 5 6
    endloop
  endfacet
  facet normal 0 -1 -0
    outer loop
      vertex 34.5 5 6
      vertex 31.5 5 3.5
      vertex 34.5 5 3.5
    endloop
  endfacet
  facet normal 1 -0 0
    outer loop
      vertex 30.5 3 3.5
      vertex 30.5 5 -9.91821e-05
      vertex 30.5 5 3.5
    endloop
  endfacet
  facet normal 1 0 0
    outer loop
      vertex 30.5 5 -9.91821e-05
      vertex 30.5 3 3.5
      vertex 30.5 3 -9.91821e-05
    endloop
  endfacet
  facet normal 0 0 -1
    outer loop
      vertex 34.5 3 3.5
      vertex 35.5 5 3.5
      vertex 35.5 3 3.5
    endloop
  endfacet
  facet normal -0 0 -1
    outer loop
      vertex 35.5 5 3.5
      vertex 34.5 3 3.5
      vertex 34.5 5 3.5
    endloop
  endfacet
  facet normal 0 0 -1
    outer loop
      vertex 30.5 3 3.5
      vertex 31.5 5 3.5
      vertex 31.5 3 3.5
    endloop
  endfacet
  facet normal -0 0 -1
    outer loop
      vertex 31.5 5 3.5
      vertex 30.5 3 3.5
      vertex 30.5 5 3.5
    endloop
  endfacet
  facet normal -1 0 0
    outer loop
      vertex 35.5 3 -9.91821e-05
      vertex 35.5 5 3.5
      vertex 35.5 5 -9.91821e-05
    endloop
  endfacet
  facet normal -1 -0 0
    outer loop
      vertex 35.5 5 3.5
      vertex 35.5 3 -9.91821e-05
      vertex 35.5 3 3.5
    endloop
  endfacet
  facet normal 1 -0 0
    outer loop
      vertex 6.75 33.6999 6
      vertex 6.75 38.2999 -6
      vertex 6.75 38.2999 6
    endloop
  endfacet
  facet normal 1 0 0
    outer loop
      vertex 6.75 38.2999 -6
      vertex 6.75 33.6999 6
      vertex 6.75 33.6999 -6
    endloop
  endfacet
  facet normal -1 0 0
    outer loop
      vertex 19.25 33.6999 -6
      vertex 19.25 38.2999 6
      vertex 19.25 38.2999 -6
    endloop
  endfacet
  facet normal -1 -0 0
    outer loop
      vertex 19.25 38.2999 6
      vertex 19.25 33.6999 -6
      vertex 19.25 33.6999 6
    endloop
  endfacet
  facet normal 0 1 -0
    outer loop
      vertex 19.25 33.6999 -6
      vertex 6.75 33.6999 6
      vertex 19.25 33.6999 6
    endloop
  endfacet
  facet normal 0 1 0
    outer loop
      vertex 6.75 33.6999 6
      vertex 19.25 33.6999 -6
      vertex 6.75 33.6999 -6
    endloop
  endfacet
  facet normal 0 -1 0
    outer loop
      vertex 16.65 38.2999 -6
      vertex 19.25 38.2999 6
      vertex 16.65 38.2999 6
    endloop
  endfacet
  facet normal 0 -1 -0
    outer loop
      vertex 19.25 38.2999 6
      vertex 16.65 38.2999 -6
      vertex 19.25 38.2999 -6
    endloop
  endfacet
  facet normal 0 -1 0
    outer loop
      vertex 6.75 38.2999 -6
      vertex 9.35 38.2999 6
      vertex 6.75 38.2999 6
    endloop
  endfacet
  facet normal 0 -1 -0
    outer loop
      vertex 9.35 38.2999 6
      vertex 6.75 38.2999 -6
      vertex 9.35 38.2999 -6
    endloop
  endfacet
  facet normal 1 -0 0
    outer loop
      vertex 9.35 38.2999 6
      vertex 9.35 39.9499 -6
      vertex 9.35 39.9499 6
    endloop
  endfacet
  facet normal 1 0 0
    outer loop
      vertex 9.35 39.9499 -6
      vertex 9.35 38.2999 6
      vertex 9.35 38.2999 -6
    endloop
  endfacet
  facet normal -1 0 0
    outer loop
      vertex 16.65 38.2999 -6
      vertex 16.65 39.9499 6
      vertex 16.65 39.9499 -6
    endloop
  endfacet
  facet normal -1 -0 0
    outer loop
      vertex 16.65 39.9499 6
      vertex 16.65 38.2999 -6
      vertex 16.65 38.2999 6
    endloop
  endfacet
  facet normal 0 -1 0
    outer loop
      vertex 9.35 39.9499 -6
      vertex 16.65 39.9499 6
      vertex 9.35 39.9499 6
    endloop
  endfacet
  facet normal 0 -1 -0
    outer loop
      vertex 16.65 39.9499 6
      vertex 9.35 39.9499 -6
      vertex 16.65 39.9499 -6
    endloop
  endfacet
  facet normal 1 -0 0
    outer loop
      vertex 6.75 26.1999 6
      vertex 6.75 30.7999 -6
      vertex 6.75 30.7999 6
    endloop
  endfacet
  facet normal 1 0 0
    outer loop
      vertex 6.75 30.7999 -6
      vertex 6.75 26.1999 6
      vertex 6.75 26.1999 -6
    endloop
  endfacet
  facet normal -1 0 0
    outer loop
      vertex 19.25 26.1999 -6
      vertex 19.25 30.7999 6
      vertex 19.25 30.7999 -6
    endloop
  endfacet
  facet normal -1 -0 0
    outer loop
      vertex 19.25 30.7999 6
      vertex 19.25 26.1999 -6
      vertex 19.25 26.1999 6
    endloop
  endfacet
  facet normal 0 1 -0
    outer loop
      vertex 19.25 26.1999 -6
      vertex 6.75 26.1999 6
      vertex 19.25 26.1999 6
    endloop
  endfacet
  facet normal 0 1 0
    outer loop
      vertex 6.75 26.1999 6
      vertex 19.25 26.1999 -6
      vertex 6.75 26.1999 -6
    endloop
  endfacet
  facet normal 0 -1 0
    outer loop
      vertex 16.65 30.7999 -6
      vertex 19.25 30.7999 6
      vertex 16.65 30.7999 6
    endloop
  endfacet
  facet normal 0 -1 -0
    outer loop
      vertex 19.25 30.7999 6
      vertex 16.65 30.7999 -6
      vertex 19.25 30.7999 -6
    endloop
  endfacet
  facet normal 0 -1 0
    outer loop
      vertex 6.75 30.7999 -6
      vertex 9.35 30.7999 6
      vertex 6.75 30.7999 6
    endloop
  endfacet
  facet normal 0 -1 -0
    outer loop
      vertex 9.35 30.7999 6
      vertex 6.75 30.7999 -6
      vertex 9.35 30.7999 -6
    endloop
  endfacet
  facet normal 1 -0 0
    outer loop
      vertex 9.35 30.7999 6
      vertex 9.35 32.4499 -6
      vertex 9.35 32.4499 6
    endloop
  endfacet
  facet normal 1 0 0
    outer loop
      vertex 9.35 32.4499 -6
      vertex 9.35 30.7999 6
      vertex 9.35 30.7999 -6
    endloop
  endfacet
  facet normal -1 0 0
    outer loop
      vertex 16.65 30.7999 -6
      vertex 16.65 32.4499 6
      vertex 16.65 32.4499 -6
    endloop
  endfacet
  facet normal -1 -0 0
    outer loop
      vertex 16.65 32.4499 6
      vertex 16.65 30.7999 -6
      vertex 16.65 30.7999 6
    endloop
  endfacet
  facet normal 0 -1 0
    outer loop
      vertex 9.35 32.4499 -6
      vertex 16.65 32.4499 6
      vertex 9.35 32.4499 6
    endloop
  endfacet
  facet normal 0 -1 -0
    outer loop
      vertex 16.65 32.4499 6
      vertex 9.35 32.4499 -6
      vertex 16.65 32.4499 -6
    endloop
  endfacet
  facet normal 1 -0 0
    outer loop
      vertex 21.75 33.6999 6
      vertex 21.75 38.2999 -6
      vertex 21.75 38.2999 6
    endloop
  endfacet
  facet normal 1 0 0
    outer loop
      vertex 21.75 38.2999 -6
      vertex 21.75 33.6999 6
      vertex 21.75 33.6999 -6
    endloop
  endfacet
  facet normal -1 0 0
    outer loop
      vertex 34.25 33.6999 -6
      vertex 34.25 38.2999 6
      vertex 34.25 38.2999 -6
    endloop
  endfacet
  facet normal -1 -0 0
    outer loop
      vertex 34.25 38.2999 6
      vertex 34.25 33.6999 -6
      vertex 34.25 33.6999 6
    endloop
  endfacet
  facet normal 0 1 -0
    outer loop
      vertex 34.25 33.6999 -6
      vertex 21.75 33.6999 6
      vertex 34.25 33.6999 6
    endloop
  endfacet
  facet normal 0 1 0
    outer loop
      vertex 21.75 33.6999 6
      vertex 34.25 33.6999 -6
      vertex 21.75 33.6999 -6
    endloop
  endfacet
  facet normal 0 -1 0
    outer loop
      vertex 31.65 38.2999 -6
      vertex 34.25 38.2999 6
      vertex 31.65 38.2999 6
    endloop
  endfacet
  facet normal 0 -1 -0
    outer loop
      vertex 34.25 38.2999 6
      vertex 31.65 38.2999 -6
      vertex 34.25 38.2999 -6
    endloop
  endfacet
  facet normal 0 -1 0
    outer loop
      vertex 21.75 38.2999 -6
      vertex 24.35 38.2999 6
      vertex 21.75 38.2999 6
    endloop
  endfacet
  facet normal 0 -1 -0
    outer loop
      vertex 24.35 38.2999 6
      vertex 21.75 38.2999 -6
      vertex 24.35 38.2999 -6
    endloop
  endfacet
  facet normal 1 -0 0
    outer loop
      vertex 24.35 38.2999 6
      vertex 24.35 39.9499 -6
      vertex 24.35 39.9499 6
    endloop
  endfacet
  facet normal 1 0 0
    outer loop
      vertex 24.35 39.9499 -6
      vertex 24.35 38.2999 6
      vertex 24.35 38.2999 -6
    endloop
  endfacet
  facet normal -1 0 0
    outer loop
      vertex 31.65 38.2999 -6
      vertex 31.65 39.9499 6
      vertex 31.65 39.9499 -6
    endloop
  endfacet
  facet normal -1 -0 0
    outer loop
      vertex 31.65 39.9499 6
      vertex 31.65 38.2999 -6
      vertex 31.65 38.2999 6
    endloop
  endfacet
  facet normal 0 -1 0
    outer loop
      vertex 24.35 39.9499 -6
      vertex 31.65 39.9499 6
      vertex 24.35 39.9499 6
    endloop
  endfacet
  facet normal 0 -1 -0
    outer loop
      vertex 31.65 39.9499 6
      vertex 24.35 39.9499 -6
      vertex 31.65 39.9499 -6
    endloop
  endfacet
  facet normal 1 -0 0
    outer loop
      vertex 21.75 26.1999 6
      vertex 21.75 30.7999 -6
      vertex 21.75 30.7999 6
    endloop
  endfacet
  facet normal 1 0 0
    outer loop
      vertex 21.75 30.7999 -6
      vertex 21.75 26.1999 6
      vertex 21.75 26.1999 -6
    endloop
  endfacet
  facet normal -1 0 0
    outer loop
      vertex 34.25 26.1999 -6
      vertex 34.25 30.7999 6
      vertex 34.25 30.7999 -6
    endloop
  endfacet
  facet normal -1 -0 0
    outer loop
      vertex 34.25 30.7999 6
      vertex 34.25 26.1999 -6
      vertex 34.25 26.1999 6
    endloop
  endfacet
  facet normal 0 1 -0
    outer loop
      vertex 34.25 26.1999 -6
      vertex 21.75 26.1999 6
      vertex 34.25 26.1999 6
    endloop
  endfacet
  facet normal 0 1 0
    outer loop
      vertex 21.75 26.1999 6
      vertex 34.25 26.1999 -6
      vertex 21.75 26.1999 -6
    endloop
  endfacet
  facet normal 0 -1 0
    outer loop
      vertex 31.65 30.7999 -6
      vertex 34.25 30.7999 6
      vertex 31.65 30.7999 6
    endloop
  endfacet
  facet normal 0 -1 -0
    outer loop
      vertex 34.25 30.7999 6
      vertex 31.65 30.7999 -6
      vertex 34.25 30.7999 -6
    endloop
  endfacet
  facet normal 0 -1 0
    outer loop
      vertex 21.75 30.7999 -6
      vertex 24.35 30.7999 6
      vertex 21.75 30.7999 6
    endloop
  endfacet
  facet normal 0 -1 -0
    outer loop
      vertex 24.35 30.7999 6
      vertex 21.75 30.7999 -6
      vertex 24.35 30.7999 -6
    endloop
  endfacet
  facet normal 1 -0 0
    outer loop
      vertex 24.35 30.7999 6
      vertex 24.35 32.4499 -6
      vertex 24.35 32.4499 6
    endloop
  endfacet
  facet normal 1 0 0
    outer loop
      vertex 24.35 32.4499 -6
      vertex 24.35 30.7999 6
      vertex 24.35 30.7999 -6
    endloop
  endfacet
  facet normal -1 0 0
    outer loop
      vertex 31.65 30.7999 -6
      vertex 31.65 32.4499 6
      vertex 31.65 32.4499 -6
    endloop
  endfacet
  facet normal -1 -0 0
    outer loop
      vertex 31.65 32.4499 6
      vertex 31.65 30.7999 -6
      vertex 31.65 30.7999 6
    endloop
  endfacet
  facet normal 0 -1 0
    outer loop
      vertex 24.35 32.4499 -6
      vertex 31.65 32.4499 6
      vertex 24.35 32.4499 6
    endloop
  endfacet
  facet normal 0 -1 -0
    outer loop
      vertex 31.65 32.4499 6
      vertex 24.35 32.4499 -6
      vertex 31.65 32.4499 -6
    endloop
  endfacet
  facet normal 1 -0 0
    outer loop
      vertex 36.75 33.7 6
      vertex 36.75 38.3 -6
      vertex 36.75 38.3 6
    endloop
  endfacet
  facet normal 1 0 0
    outer loop
      vertex 36.75 38.3 -6
      vertex 36.75 33.7 6
      vertex 36.75 33.7 -6
    endloop
  endfacet
  facet normal -1 0 0
    outer loop
      vertex 49.25 33.7 -6
      vertex 49.25 38.3 6
      vertex 49.25 38.3 -6
    endloop
  endfacet
  facet normal -1 -0 0
    outer loop
      vertex 49.25 38.3 6
      vertex 49.25 33.7 -6
      vertex 49.25 33.7 6
    endloop
  endfacet
  facet normal 0 1 -0
    outer loop
      vertex 49.25 33.7 -6
      vertex 36.75 33.7 6
      vertex 49.25 33.7 6
    endloop
  endfacet
  facet normal 0 1 0
    outer loop
      vertex 36.75 33.7 6
      vertex 49.25 33.7 -6
      vertex 36.75 33.7 -6
    endloop
  endfacet
  facet normal 0 -1 0
    outer loop
      vertex 46.65 38.3 -6
      vertex 49.25 38.3 6
      vertex 46.65 38.3 6
    endloop
  endfacet
  facet normal 0 -1 -0
    outer loop
      vertex 49.25 38.3 6
      vertex 46.65 38.3 -6
      vertex 49.25 38.3 -6
    endloop
  endfacet
  facet normal 0 -1 0
    outer loop
      vertex 36.75 38.3 -6
      vertex 39.35 38.3 6
      vertex 36.75 38.3 6
    endloop
  endfacet
  facet normal 0 -1 -0
    outer loop
      vertex 39.35 38.3 6
      vertex 36.75 38.3 -6
      vertex 39.35 38.3 -6
    endloop
  endfacet
  facet normal 1 -0 0
    outer loop
      vertex 39.35 38.3 6
      vertex 39.35 39.95 -6
      vertex 39.35 39.95 6
    endloop
  endfacet
  facet normal 1 0 0
    outer loop
      vertex 39.35 39.95 -6
      vertex 39.35 38.3 6
      vertex 39.35 38.3 -6
    endloop
  endfacet
  facet normal -1 0 0
    outer loop
      vertex 46.65 38.3 -6
      vertex 46.65 39.95 6
      vertex 46.65 39.95 -6
    endloop
  endfacet
  facet normal -1 -0 0
    outer loop
      vertex 46.65 39.95 6
      vertex 46.65 38.3 -6
      vertex 46.65 38.3 6
    endloop
  endfacet
  facet normal 0 -1 0
    outer loop
      vertex 39.35 39.95 -6
      vertex 46.65 39.95 6
      vertex 39.35 39.95 6
    endloop
  endfacet
  facet normal 0 -1 -0
    outer loop
      vertex 46.65 39.95 6
      vertex 39.35 39.95 -6
      vertex 46.65 39.95 -6
    endloop
  endfacet
  facet normal 1 -0 0
    outer loop
      vertex 36.75 26.1999 6
      vertex 36.75 30.7999 -6
      vertex 36.75 30.7999 6
    endloop
  endfacet
  facet normal 1 0 0
    outer loop
      vertex 36.75 30.7999 -6
      vertex 36.75 26.1999 6
      vertex 36.75 26.1999 -6
    endloop
  endfacet
  facet normal -1 0 0
    outer loop
      vertex 49.25 26.1999 -6
      vertex 49.25 30.7999 6
      vertex 49.25 30.7999 -6
    endloop
  endfacet
  facet normal -1 -0 0
    outer loop
      vertex 49.25 30.7999 6
      vertex 49.25 26.1999 -6
      vertex 49.25 26.1999 6
    endloop
  endfacet
  facet normal 0 1 -0
    outer loop
      vertex 49.25 26.1999 -6
      vertex 36.75 26.1999 6
      vertex 49.25 26.1999 6
    endloop
  endfacet
  facet normal 0 1 0
    outer loop
      vertex 36.75 26.1999 6
      vertex 49.25 26.1999 -6
      vertex 36.75 26.1999 -6
    endloop
  endfacet
  facet normal 0 -1 0
    outer loop
      vertex 46.65 30.7999 -6
      vertex 49.25 30.7999 6
      vertex 46.65 30.7999 6
    endloop
  endfacet
  facet normal 0 -1 -0
    outer loop
      vertex 49.25 30.7999 6
      vertex 46.65 30.7999 -6
      vertex 49.25 30.7999 -6
    endloop
  endfacet
  facet normal 0 -1 0
    outer loop
      vertex 36.75 30.7999 -6
      vertex 39.35 30.7999 6
      vertex 36.75 30.7999 6
    endloop
  endfacet
  facet normal 0 -1 -0
    outer loop
      vertex 39.35 30.7999 6
      vertex 36.75 30.7999 -6
      vertex 39.35 30.7999 -6
    endloop
  endfacet
  facet normal 1 -0 0
    outer loop
      vertex 39.35 30.7999 6
      vertex 39.35 32.4499 -6
      vertex 39.35 32.4499 6
    endloop
  endfacet
  facet normal 1 0 0
    outer loop
      vertex 39.35 32.4499 -6
      vertex 39.35 30.7999 6
      vertex 39.35 30.7999 -6
    endloop
  endfacet
  facet normal -1 0 0
    outer loop
      vertex 46.65 30.7999 -6
      vertex 46.65 32.4499 6
      vertex 46.65 32.4499 -6
    endloop
  endfacet
  facet normal -1 -0 0
    outer loop
      vertex 46.65 32.4499 6
      vertex 46.65 30.7999 -6
      vertex 46.65 30.7999 6
    endloop
  endfacet
  facet normal 0 -1 0
    outer loop
      vertex 39.35 32.4499 -6
      vertex 46.65 32.4499 6
      vertex 39.35 32.4499 6
    endloop
  endfacet
  facet normal 0 -1 -0
    outer loop
      vertex 46.65 32.4499 6
      vertex 39.35 32.4499 -6
      vertex 46.65 32.4499 -6
    endloop
  endfacet
  facet normal 1 -0 0
    outer loop
      vertex 4 6 6
      vertex 4 20 -9.91821e-05
      vertex 4 20 6
    endloop
  endfacet
  facet normal 1 0 0
    outer loop
      vertex 4 20 -9.91821e-05
      vertex 4 6 6
      vertex 4 6 -9.91821e-05
    endloop
  endfacet
  facet normal -1 0 0
    outer loop
      vertex 19 6 -9.91821e-05
      vertex 19 20 6
      vertex 19 20 -9.91821e-05
    endloop
  endfacet
  facet normal -1 -0 0
    outer loop
      vertex 19 20 6
      vertex 19 6 -9.91821e-05
      vertex 19 6 6
    endloop
  endfacet
  facet normal 0 -1 0
    outer loop
      vertex 4 20 -9.91821e-05
      vertex 19 20 6
      vertex 4 20 6
    endloop
  endfacet
  facet normal 0 -1 -0
    outer loop
      vertex 19 20 6
      vertex 4 20 -9.91821e-05
      vertex 19 20 -9.91821e-05
    endloop
  endfacet
  facet normal 0 1 -0
    outer loop
      vertex 19 6 -9.91821e-05
      vertex 4 6 6
      vertex 19 6 6
    endloop
  endfacet
  facet normal 0 1 0
    outer loop
      vertex 4 6 6
      vertex 19 6 -9.91821e-05
      vertex 4 6 -9.91821e-05
    endloop
  endfacet
  facet normal 1 -0 0
    outer loop
      vertex 21.5 6.5 6
      vertex 21.5 24.5 -9.91821e-05
      vertex 21.5 24.5 6
    endloop
  endfacet
  facet normal 1 0 0
    outer loop
      vertex 21.5 24.5 -9.91821e-05
      vertex 21.5 6.5 6
      vertex 21.5 6.5 -9.91821e-05
    endloop
  endfacet
  facet normal -1 0 0
    outer loop
      vertex 37.5 6.5 -9.91821e-05
      vertex 37.5 24.5 6
      vertex 37.5 24.5 -9.91821e-05
    endloop
  endfacet
  facet normal -1 -0 0
    outer loop
      vertex 37.5 24.5 6
      vertex 37.5 6.5 -9.91821e-05
      vertex 37.5 6.5 6
    endloop
  endfacet
  facet normal 0 1 -0
    outer loop
      vertex 37.5 6.5 -9.91821e-05
      vertex 21.5 6.5 6
      vertex 37.5 6.5 6
    endloop
  endfacet
  facet normal 0 1 0
    outer loop
      vertex 21.5 6.5 6
      vertex 37.5 6.5 -9.91821e-05
      vertex 21.5 6.5 -9.91821e-05
    endloop
  endfacet
  facet normal 1 -0 0
    outer loop
      vertex 39.15 4.65 6
      vertex 39.15 13.35 -9.91821e-05
      vertex 39.15 13.35 6
    endloop
  endfacet
  facet normal 1 0 0
    outer loop
      vertex 39.15 13.35 -9.91821e-05
      vertex 39.15 4.65 6
      vertex 39.15 4.65 -9.91821e-05
    endloop
  endfacet
  facet normal -1 0 0
    outer loop
      vertex 52.85 4.65 -9.91821e-05
      vertex 52.85 13.35 6
      vertex 52.85 13.35 -9.91821e-05
    endloop
  endfacet
  facet normal -1 -0 0
    outer loop
      vertex 52.85 13.35 6
      vertex 52.85 4.65 -9.91821e-05
      vertex 52.85 4.65 6
    endloop
  endfacet
  facet normal 0 -1 0
    outer loop
      vertex 39.15 13.35 -9.91821e-05
      vertex 52.85 13.35 6
      vertex 39.15 13.35 6
    endloop
  endfacet
  facet normal 0 -1 -0
    outer loop
      vertex 52.85 13.35 6
      vertex 39.15 13.35 -9.91821e-05
      vertex 52.85 13.35 -9.91821e-05
    endloop
  endfacet
  facet normal 0 1 -0
    outer loop
      vertex 52.85 4.65 -9.91821e-05
      vertex 39.15 4.65 6
      vertex 52.85 4.65 6
    endloop
  endfacet
  facet normal 0 1 0
    outer loop
      vertex 39.15 4.65 6
      vertex 52.85 4.65 -9.91821e-05
      vertex 39.15 4.65 -9.91821e-05
    endloop
  endfacet
endsolid OpenSCAD_Model
